<svg xmlns="http://www.w3.org/2000/svg" width="119" height="119" viewBox="0 0 119 119">
  <g id="anywhere" transform="translate(-433 -223)">
    <g id="Group_11" data-name="Group 11" transform="translate(460.663 246.737)">
      <g id="Group_10" data-name="Group 10">
        <path id="Path_15" data-name="Path 15" d="M150.857,102.129,119.02,165.335,150.928,153.3l31.949,12.044Zm.07,43.689-17.579,6.631,17.526-34.794,17.62,34.786Z" transform="translate(-119.02 -102.129)" fill="#007aff"/>
      </g>
    </g>
    <g id="Group_13" data-name="Group 13" transform="translate(433 223)">
      <g id="Group_12" data-name="Group 12" transform="translate(0 0)">
        <path id="Path_16" data-name="Path 16" d="M101.573,17.427a59.5,59.5,0,1,0-84.146,84.146,59.5,59.5,0,0,0,84.146-84.146ZM59.5,112A52.5,52.5,0,1,1,112,59.5,52.559,52.559,0,0,1,59.5,112Z" transform="translate(0 0)"/>
      </g>
    </g>
  </g>
</svg>
