<svg xmlns="http://www.w3.org/2000/svg" width="93" height="108" viewBox="0 0 93 108">
  <g id="secure" transform="translate(-90 -112.999)">
    <path id="Path_12" data-name="Path 12" d="M92.892,29.3l0-.084c-.048-1.037-.079-2.135-.1-3.356a11.5,11.5,0,0,0-10.9-11.213c-12.557-.693-22.27-4.742-30.57-12.742l-.071-.067a7.047,7.047,0,0,0-9.5,0l-.071.067c-8.3,8-18.013,12.049-30.57,12.743A11.5,11.5,0,0,0,.213,25.863c-.018,1.213-.051,2.31-.1,3.355l0,.2C-.135,42.075-.438,57.834,4.893,72.137A54.322,54.322,0,0,0,18.087,92.46c6.632,6.4,15.32,11.482,25.82,15.1a8.068,8.068,0,0,0,1.058.285,7.9,7.9,0,0,0,3.073,0,8.094,8.094,0,0,0,1.062-.287c10.488-3.627,19.166-8.711,25.792-15.111A54.4,54.4,0,0,0,88.087,72.122C93.438,57.776,93.135,41.988,92.892,29.3ZM82.074,69.93c-5.622,15.075-17.1,25.429-35.089,31.65a1.625,1.625,0,0,1-.2.054,1.454,1.454,0,0,1-.563,0,1.611,1.611,0,0,1-.2-.054C28.01,95.37,16.525,85.022,10.906,69.946,5.993,56.762,6.271,42.3,6.517,29.535l0-.071c.05-1.1.083-2.245.1-3.508a5.113,5.113,0,0,1,4.849-4.979,56.76,56.76,0,0,0,19.084-4.151A49.968,49.968,0,0,0,46.1,6.493a.6.6,0,0,1,.793,0A49.987,49.987,0,0,0,62.45,16.826a56.763,56.763,0,0,0,19.085,4.151,5.112,5.112,0,0,1,4.848,4.98c.019,1.269.052,2.418.1,3.507C86.73,42.24,87,56.717,82.074,69.93Zm0,0" transform="translate(90 113)"/>
    <path id="Path_14" data-name="Path 14" d="M186.6,213.276l-19.321,17.292-5.244-4.694a5.313,5.313,0,0,0-6.926,0,4.066,4.066,0,0,0,0,6.2l8.708,7.794a5.312,5.312,0,0,0,6.925,0l22.785-20.393a4.066,4.066,0,0,0,0-6.2A5.309,5.309,0,0,0,186.6,213.276Zm0,0" transform="translate(-37.808 -59.548)" fill="#007aff"/>
  </g>
</svg>
