<svg xmlns="http://www.w3.org/2000/svg" width="108" height="108" viewBox="0 0 108 108">
  <g id="UserH" transform="translate(-1104 -91.292)">
    <g id="user_1_" data-name="user (1)" transform="translate(1104 91.292)">
      <g id="Group_8" data-name="Group 8" transform="translate(0)">
        <path id="Path_10" data-name="Path 10" d="M92.184,69.816a53.793,53.793,0,0,0-20.52-12.871,31.219,31.219,0,1,0-35.327,0A54.085,54.085,0,0,0,0,108H8.437a45.562,45.562,0,1,1,91.125,0H108A53.648,53.648,0,0,0,92.184,69.816ZM54,54A22.781,22.781,0,1,1,76.781,31.219,22.807,22.807,0,0,1,54,54Z" transform="translate(0)"/>
      </g>
    </g>
    <g id="lock" transform="translate(1084 172.275)">
      <g id="Group_9" data-name="Group 9" transform="translate(64)">
        <path id="Path_11" data-name="Path 11" d="M83.487,10.022h-1.67V7.795a7.795,7.795,0,0,0-15.589,0v2.227h-1.67a.556.556,0,0,0-.557.557V24.5a2.229,2.229,0,0,0,2.227,2.227H81.816A2.229,2.229,0,0,0,84.043,24.5V10.578A.556.556,0,0,0,83.487,10.022Zm-7.8,11.631a.557.557,0,0,1-.553.618H72.908a.557.557,0,0,1-.553-.618l.351-3.158a2.2,2.2,0,0,1-.911-1.791,2.227,2.227,0,1,1,4.454,0,2.2,2.2,0,0,1-.911,1.791Zm2.787-11.631H69.568V7.795a4.454,4.454,0,1,1,8.908,0Z" transform="translate(-64)" fill="#007aff"/>
      </g>
    </g>
  </g>
</svg>
