<?xml version="1.0" standalone="no"?>
<!DOCTYPE svg PUBLIC "-//W3C//DTD SVG 20010904//EN"
 "http://www.w3.org/TR/2001/REC-SVG-20010904/DTD/svg10.dtd">
<svg version="1.0" xmlns="http://www.w3.org/2000/svg"
 width="102.000000pt" height="102.000000pt" viewBox="0 0 102.000000 102.000000"
 preserveAspectRatio="xMidYMid meet">
<metadata>
Created by potrace 1.11, written by Peter Selinger 2001-2013
</metadata>
<g transform="translate(0.000000,102.000000) scale(0.100000,-0.100000)"
fill="#000000" stroke="none">
<path d="M428 790 c-39 -30 -42 -68 -8 -102 53 -52 140 -23 140 47 0 64 -79
97 -132 55z"/>
<path d="M813 700 c-386 -111 -866 -320 -730 -320 97 0 597 171 824 281 177
86 134 104 -94 39z"/>
<path d="M810 556 c-137 -36 -405 -126 -495 -166 -11 -5 -66 -29 -122 -54
-134 -57 -198 -95 -185 -108 45 -45 927 271 950 340 6 18 -51 13 -148 -12z"/>
<path d="M803 323 c-26 -10 -13 -43 23 -58 21 -8 34 -20 31 -27 -5 -16 -48
-12 -60 5 -5 8 -7 5 -5 -8 2 -14 12 -21 34 -23 58 -6 70 53 13 65 -16 3 -29
11 -29 18 0 22 13 25 37 10 24 -16 32 -8 11 13 -12 12 -33 14 -55 5z"/>
<path d="M916 299 c-8 -19 -18 -48 -22 -65 -6 -26 -5 -27 7 -11 21 26 57 30
64 6 4 -10 10 -19 16 -19 9 0 -26 99 -41 114 -6 6 -15 -4 -24 -25z m34 -25 c0
-8 -7 -14 -15 -14 -15 0 -21 21 -9 33 10 9 24 -2 24 -19z"/>
<path d="M1004 275 c1 -72 16 -83 16 -12 0 31 -4 58 -8 61 -5 3 -8 -19 -8 -49z"/>
</g>
</svg>
