<?xml version="1.0" encoding="iso-8859-1"?>
<!-- Generator: Adobe Illustrator 19.0.0, SVG Export Plug-In . SVG Version: 6.00 Build 0)  -->
<svg version="1.1" id="Capa_1" xmlns="http://www.w3.org/2000/svg" xmlns:xlink="http://www.w3.org/1999/xlink" x="0px" y="0px"
	 viewBox="0 0 511.998 511.998" style="enable-background:new 0 0 511.998 511.998;" xml:space="preserve">
<g>
	<g>
		<path d="M493.452,155.722l-80.119-44.123c-3.628-1.997-8.188-0.676-10.188,2.951c-1.998,3.629-0.677,8.189,2.951,10.188
			l80.119,44.123c6.754,3.718,10.785,10.541,10.785,18.251c0,7.709-4.031,14.532-10.784,18.251l-96.43,53.106l-95.331-57.076
			c3.44-4.203,5.389-9.062,5.389-14.282c0-16.433-19.259-29.306-43.844-29.306c-24.585,0-43.844,12.873-43.844,29.306
			c0,16.434,19.259,29.307,43.844,29.307c9.576,0,18.335-1.96,25.472-5.315l93.104,55.743l-87.288,48.071
			c-19.592,10.789-42.984,10.789-62.576,0L25.784,205.363C19.031,201.645,15,194.821,15,187.112c0-7.71,4.031-14.533,10.784-18.252
			L224.712,59.307c19.593-10.787,42.985-10.787,62.576,0l89.621,49.356c3.629,1.999,8.189,0.677,10.188-2.951
			c1.998-3.629,0.677-8.189-2.951-10.188l-89.621-49.356c-24.123-13.285-52.926-13.285-77.049,0L18.548,155.722
			C6.934,162.118,0,173.853,0,187.112c0,13.259,6.934,24.993,18.548,31.39l198.928,109.553c12.063,6.644,25.291,9.965,38.524,9.964
			c13.229-0.001,26.465-3.322,38.524-9.964l87.605-48.246v70.227c-13.035,3.47-22.668,15.371-22.668,29.483
			c0,4.47,0.974,8.714,2.708,12.543c-1.776,3.926-2.708,8.195-2.708,12.564v25.229c-34.588,9.621-69.363,14.501-103.462,14.501
			c-65.58,0-120.943-17.895-155.839-32.906c-16.985-7.308-27.961-23.95-27.961-42.399V268.746c0-4.143-3.357-7.5-7.5-7.5
			s-7.5,3.357-7.5,7.5v100.305c0,24.449,14.536,46.5,37.033,56.179c36.19,15.568,93.633,34.127,161.767,34.127
			c34.135,0,68.888-4.704,103.462-13.963v12.583c0,9.824,7.992,17.817,17.816,17.817h25.387c9.824,0,17.817-7.993,17.817-17.817
			v-34.004c20.941-10.238,34.317-31.473,34.317-54.922V239.788l38.652-21.286c11.614-6.396,18.548-18.131,18.548-31.39
			C512,173.853,505.066,162.118,493.452,155.722z M281.343,193.543l-21.49-12.866c-3.554-2.128-8.159-0.973-10.287,2.582
			c-2.128,3.554-0.972,8.159,2.582,10.287l12.063,7.223c-2.583,0.415-5.331,0.649-8.211,0.649c-16.509,0-28.844-7.554-28.844-14.307
			s12.335-14.306,28.844-14.306s28.844,7.553,28.844,14.306C284.844,189.264,283.586,191.497,281.343,193.543z M389.972,364.01
			c8.553,0,15.511,6.958,15.511,15.51c0,8.553-6.958,15.511-15.511,15.511c-8.552,0-15.51-6.958-15.51-15.511
			C374.462,370.968,381.42,364.01,389.972,364.01z M405.483,457.976c-0.001,1.554-1.264,2.818-2.818,2.818h-25.387
			c-1.553,0-2.816-1.264-2.816-2.817v-52.198c4.548,2.697,9.85,4.251,15.51,4.251c5.66,0,10.962-1.555,15.511-4.252V457.976z
			 M439.8,369.051c0,15.092-7.347,28.971-19.317,37.524c0,0,0.857-8.18-2.824-14.258c1.808-3.895,2.824-8.229,2.824-12.797
			c0-14.358-9.973-26.423-23.353-29.654v-78.318l42.67-23.499V369.051z"/>
	</g>
</g>
<g>
</g>
<g>
</g>
<g>
</g>
<g>
</g>
<g>
</g>
<g>
</g>
<g>
</g>
<g>
</g>
<g>
</g>
<g>
</g>
<g>
</g>
<g>
</g>
<g>
</g>
<g>
</g>
<g>
</g>
</svg>
