<?xml version="1.0"?>
<svg xmlns="http://www.w3.org/2000/svg" id="Out_line" data-name="Out line" viewBox="0 0 512 512" width="512" height="512"><title>loan-bank-money-cost</title><path d="M400,56v5.084L277.84424,22.50977a51.59475,51.59475,0,0,0-43.34131,5.68554l-50.55371,32.1709A51.42156,51.42156,0,0,0,160.63422,96H48a8.00008,8.00008,0,0,0-8,8V280a8.00008,8.00008,0,0,0,8,8H384a8.00008,8.00008,0,0,0,8-8V194.56152c1.07666-.81054,2.13379-1.65869,3.15967-2.56152H400v16a8.00008,8.00008,0,0,0,8,8h88V200H416V64h80V48H408A8.00008,8.00008,0,0,0,400,56ZM273.938,232a42.25844,42.25844,0,0,0,9.44421-1.07373A71.75734,71.75734,0,0,0,264.45508,272H224V112h6.05762a25.94059,25.94059,0,0,1,18.34179,44.28418l-4.11816,4.11719A41.941,41.941,0,0,0,273.938,232ZM328,208.45508a71.42739,71.42739,0,0,0-17.28369,4.1394L328,195.31152Zm0,16.12549V272H280.58057A56.11348,56.11348,0,0,1,328,224.58057ZM208,272H176V112h32Zm-48,0H119.54486A72.1216,72.1216,0,0,0,56,208.45508V175.54492A72.1216,72.1216,0,0,0,119.54486,112H160ZM103.41943,112A56.11355,56.11355,0,0,1,56,159.41943V112ZM56,224.58057A56.11355,56.11355,0,0,1,103.41943,272H56ZM376,272H344V202.77734a53.61819,53.61819,0,0,0,32-.00048Zm15.99854-95.999a7.9992,7.9992,0,0,0-5.65625,2.34277,37.299,37.299,0,0,1-52.6875-.001,8.00269,8.00269,0,0,0-11.31348,0l-30.061,30.05957a25.94111,25.94111,0,1,1-36.686-36.68652l4.11816-4.11719h.00049A41.941,41.941,0,0,0,230.05762,96H176.89111a35.5372,35.5372,0,0,1,15.648-22.13574l50.55371-32.1709a35.63334,35.63334,0,0,1,29.93311-3.92578L400,77.86328V176.001Z"/><path d="M64,488v-8H88a8.00008,8.00008,0,0,0,8-8v-8.45435l.75635.54029a171.33807,171.33807,0,0,0,220.74072-18.26856l60.15967-60.16015a36.28047,36.28047,0,0,0-46.20239-55.55567A30.55216,30.55216,0,0,0,280.45,323.166a31.1899,31.1899,0,0,0-46.28638,19.19336L225.7536,376H179.314l-5.65722-5.65723A64.595,64.595,0,0,0,96,359.90747V352a8.00008,8.00008,0,0,0-8-8H64a8.00008,8.00008,0,0,0-8-8H16v16H48V480H16v16H56A8.00008,8.00008,0,0,0,64,488ZM300.207,328.82812A14.56083,14.56083,0,0,1,318.28882,342.397l-55.823,55.823a31.9014,31.9014,0,0,0-3.97656-8.15259L291.251,335.46484A14.47209,14.47209,0,0,1,300.207,328.82812Zm-50.521,17.41211a15.19483,15.19483,0,0,1,19.54687-10.72949,15.29562,15.29562,0,0,1,2.63062,1.16773l-25.61005,42.6831a31.78166,31.78166,0,0,0-4.39722-1.80151ZM128,367.43066a48.25,48.25,0,0,1,34.34326,14.22657l8,8A8.00035,8.00035,0,0,0,176,392h56a16,16,0,0,1,0,32H160v16h72a32.02646,32.02646,0,0,0,28.19434-16.88086l77.4624-77.46191a20.28409,20.28409,0,0,1,28.68652,28.68554l-60.15967,60.16016a155.33778,155.33778,0,0,1-200.12744,16.56348L96,443.8833V379.47754A48.20082,48.20082,0,0,1,128,367.43066ZM80,360V464H64V360Z"/></svg>
