<?xml version="1.0" encoding="iso-8859-1"?>
<!-- Generator: Adobe Illustrator 19.0.0, SVG Export Plug-In . SVG Version: 6.00 Build 0)  -->
<svg version="1.1" id="Capa_1" xmlns="http://www.w3.org/2000/svg" xmlns:xlink="http://www.w3.org/1999/xlink" x="0px" y="0px"
	 viewBox="0 0 480 480" style="enable-background:new 0 0 480 480;" xml:space="preserve">
<g>
	<g>
		<rect x="152" y="72" width="16" height="16"/>
	</g>
</g>
<g>
	<g>
		<rect x="216" y="32" width="16" height="16"/>
	</g>
</g>
<g>
	<g>
		<rect x="248" y="32" width="16" height="16"/>
	</g>
</g>
<g>
	<g>
		<rect x="312" y="72" width="16" height="16"/>
	</g>
</g>
<g>
	<g>
		<rect x="152" y="104" width="16" height="16"/>
	</g>
</g>
<g>
	<g>
		<rect x="312" y="104" width="16" height="16"/>
	</g>
</g>
<g>
	<g>
		<rect x="216" y="64" width="16" height="16"/>
	</g>
</g>
<g>
	<g>
		<rect x="248" y="64" width="16" height="16"/>
	</g>
</g>
<g>
	<g>
		<rect x="96" y="240" width="16" height="16"/>
	</g>
</g>
<g>
	<g>
		<rect x="128" y="240" width="16" height="16"/>
	</g>
</g>
<g>
	<g>
		<rect x="96" y="272" width="16" height="16"/>
	</g>
</g>
<g>
	<g>
		<rect x="128" y="272" width="16" height="16"/>
	</g>
</g>
<g>
	<g>
		<rect x="336" y="360" width="16" height="16"/>
	</g>
</g>
<g>
	<g>
		<rect x="368" y="360" width="16" height="16"/>
	</g>
</g>
<g>
	<g>
		<rect x="336" y="392" width="16" height="16"/>
	</g>
</g>
<g>
	<g>
		<rect x="368" y="392" width="16" height="16"/>
	</g>
</g>
<g>
	<g>
		<rect x="272" y="400" width="16" height="16"/>
	</g>
</g>
<g>
	<g>
		<rect x="272" y="432" width="16" height="16"/>
	</g>
</g>
<g>
	<g>
		<rect x="432" y="400" width="16" height="16"/>
	</g>
</g>
<g>
	<g>
		<rect x="432" y="432" width="16" height="16"/>
	</g>
</g>
<g>
	<g>
		<rect x="192" y="280" width="16" height="16"/>
	</g>
</g>
<g>
	<g>
		<rect x="192" y="312" width="16" height="16"/>
	</g>
</g>
<g>
	<g>
		<rect x="32" y="280" width="16" height="16"/>
	</g>
</g>
<g>
	<g>
		<rect x="32" y="312" width="16" height="16"/>
	</g>
</g>
<g>
	<g>
		<rect x="104" y="384" width="16" height="16"/>
	</g>
</g>
<g>
	<g>
		<rect x="104" y="416" width="16" height="16"/>
	</g>
</g>
<g>
	<g>
		<rect x="136" y="416" width="16" height="16"/>
	</g>
</g>
<g>
	<g>
		<rect x="168" y="416" width="16" height="16"/>
	</g>
</g>
<g>
	<g>
		<rect x="200" y="416" width="16" height="16"/>
	</g>
</g>
<g>
	<g>
		<rect x="264" y="280" width="16" height="16"/>
	</g>
</g>
<g>
	<g>
		<rect x="296" y="280" width="16" height="16"/>
	</g>
</g>
<g>
	<g>
		<rect x="328" y="280" width="16" height="16"/>
	</g>
</g>
<g>
	<g>
		<rect x="360" y="280" width="16" height="16"/>
	</g>
</g>
<g>
	<g>
		<rect x="216" y="176" width="16" height="16"/>
	</g>
</g>
<g>
	<g>
		<rect x="216" y="208" width="16" height="16"/>
	</g>
</g>
<g>
	<g>
		<path d="M360,120.28V94.832c2.608,0.688,5.272,1.168,8,1.168h80c17.648,0,32-14.352,32-32c0-18.744-16.504-33.8-35.272-31.824
			C438.512,17.792,424.168,8,408,8c-16.168,0-30.512,9.792-36.728,24.176c-8.84-0.944-17.656,1.976-24.304,7.824H296V8
			c0-4.424-3.576-8-8-8h-96c-4.424,0-8,3.576-8,8v32h-56c-4.424,0-8,3.576-8,8v1.192c-3.656-0.968-7.448-1.416-11.272-1.008
			C102.512,33.792,88.168,24,72,24c-16.168,0-30.512,9.792-36.728,24.176C16.552,46.192,0,61.256,0,80c0,17.648,14.352,32,32,32h80
			c2.728,0,5.392-0.48,8-1.168v9.392C70.376,148.92,32.968,193.976,13.872,248H8c-4.424,0-8,3.576-8,8v96c0,1.992,0.8,3.752,2,5.152
			c5.344,43.872,22.464,85.232,49.904,119.816c1.52,1.912,3.824,3.032,6.264,3.032H248h64h32h32h32h64c4.424,0,8-3.576,8-8v-96
			c0-2.856-1.576-5.24-3.824-6.656C478.664,355.328,480,341.448,480,328C480,242.256,434.104,163.168,360,120.28z M360,50.192
			c4-2.368,8.92-2.936,13.736-1.064c2.2,0.864,4.664,0.712,6.752-0.44c2.072-1.136,3.528-3.128,4-5.448
			C386.72,32.096,396.608,24,408,24c11.392,0,21.28,8.096,23.512,19.24c0.472,2.32,1.928,4.312,4,5.448
			c2.088,1.152,4.544,1.304,6.752,0.44C453.104,44.912,464,53.288,464,64c0,8.824-7.176,16-16,16h-80c-2.808,0-5.56-0.776-8-2.216
			V50.192z M296,56h48v25.776v43.04V136h-48V56z M200,48V16h80v32v88h-16v-32c0-4.424-3.576-8-8-8h-32c-4.424,0-8,3.576-8,8v32h-16
			V48z M248,112v24h-16v-24H248z M136,124.816v-27.04V62.224V56h48v80h-48V124.816z M112,96H32c-8.824,0-16-7.176-16-16
			s7.176-16,16-16c1.888,0,3.824,0.384,5.736,1.128c2.2,0.864,4.672,0.712,6.752-0.44c2.072-1.136,3.528-3.128,4-5.448
			C50.72,48.096,60.608,40,72,40c11.392,0,21.28,8.096,23.512,19.24c0.472,2.32,1.928,4.312,4,5.448
			c2.08,1.152,4.544,1.304,6.752,0.44c4.752-1.856,9.656-1.328,13.736,1.088v27.56C117.56,95.224,114.808,96,112,96z M16,264h3.528
			H64v80H16V264z M304,464h-48v-80h48V464z M368,464h-16v-24h16V464z M400,376v88h-16v-32c0-4.424-3.576-8-8-8h-32
			c-4.424,0-8,3.576-8,8v32h-16v-88v-32h80V376z M464,464h-48v-80h48V464z M460.232,368H416v-32c0-4.424-3.576-8-8-8h-96
			c-4.424,0-8,3.576-8,8v32h-56c-4.424,0-8,3.576-8,8v88H62.08c-23.248-30.376-38.24-66.096-43.672-104H72h32h32h32h64
			c4.424,0,8-3.576,8-8v-96c0-4.424-3.576-8-8-8h-56v-32c0-4.424-3.576-8-8-8H72c-4.424,0-8,3.576-8,8v32H30.84
			c17.256-45.168,48.392-83.272,89.16-109.152V144c0,4.424,3.576,8,8,8h64h32h32h32h64c4.424,0,8-3.576,8-8v-5.152
			C424.488,179.824,464,251.088,464,328C464,340.984,462.736,354.416,460.232,368z M136,304h-32c-4.424,0-8,3.576-8,8v32H80v-88v-32
			h80v32v88h-16v-32C144,307.576,140.424,304,136,304z M128,320v24h-16v-24H128z M176,344v-80h48v80H176z"/>
	</g>
</g>
<g>
</g>
<g>
</g>
<g>
</g>
<g>
</g>
<g>
</g>
<g>
</g>
<g>
</g>
<g>
</g>
<g>
</g>
<g>
</g>
<g>
</g>
<g>
</g>
<g>
</g>
<g>
</g>
<g>
</g>
</svg>
