<svg height="512" viewBox="0 0 64 64" width="512" xmlns="http://www.w3.org/2000/svg"><path d="m38.168 10.555a1 1 0 0 0 1.832-.555v-6h3a1 1 0 0 1 1 1v5h2v-5a3 3 0 0 0 -3-3h-36a3 3 0 0 0 -3 3v48a3 3 0 0 0 3 3h28v-2h-28a1 1 0 0 1 -1-1v-48a1 1 0 0 1 1-1h27v6a1 1 0 0 0 1.832.555l1.168-1.755zm-2-4.11-.168.255v-2.7h2v2.7l-.168-.252a1 1 0 0 0 -1.664 0z"/><path d="m20 43a10.011 10.011 0 0 0 10-10 1 1 0 0 0 -1-1h-8v-8a1 1 0 0 0 -1-1 10 10 0 0 0 0 20zm-1-17.938v7.938a1 1 0 0 0 1 1h7.937a8 8 0 1 1 -8.937-8.938z"/><path d="m33 30a10.011 10.011 0 0 0 -10-10 1 1 0 0 0 -1 1v9a1 1 0 0 0 1 1h9a1 1 0 0 0 1-1zm-9-1v-6.938a8.017 8.017 0 0 1 6.937 6.938z"/><path d="m28 42h4v2h-4z"/><path d="m28 46h4v2h-4z"/><path d="m15 17h-2a1 1 0 0 1 -1-1h-2a3 3 0 0 0 3 3v1h2v-1a3 3 0 0 0 0-6h-2a1 1 0 0 1 0-2h2a1 1 0 0 1 1 1h2a3 3 0 0 0 -3-3v-1h-2v1a3 3 0 0 0 0 6h2a1 1 0 0 1 0 2z"/><path d="m20 15h8v2h-8z"/><path d="m20 11h8v2h-8z"/><path d="m54 44h-12a1 1 0 0 0 -1 1v12a1 1 0 0 0 1 1h12a1 1 0 0 0 1-1v-12a1 1 0 0 0 -1-1zm-1 4h-2v-2h2zm-6 4v-2h2v2zm2 2v2h-2v-2zm-4-2h-2v-2h2zm2-4v-2h2v2zm4 2h2v2h-2zm-6-4v2h-2v-2zm-2 8h2v2h-2zm8 2v-2h2v2z"/><path d="m58 28h-1v-15a1 1 0 0 0 -1.6-.8l-2.062 1.55-2.065-1.55a1 1 0 0 0 -1.2 0l-2.066 1.55-2.067-1.55a1 1 0 0 0 -1.2 0l-2.07 1.55-2.07-1.55a1 1 0 0 0 -1.6.8v15h-1a2 2 0 0 0 -2 2v9a1 1 0 0 0 .03.243l.97 3.88v16.877a2 2 0 0 0 2 2h18a2 2 0 0 0 2-2v-16.877l.97-3.88a1 1 0 0 0 .03-.243v-9a2 2 0 0 0 -2-2zm-17-13 1.071.8a1 1 0 0 0 1.2 0l2.07-1.55 2.066 1.55a1 1 0 0 0 1.2 0l2.067-1.55 2.064 1.55a1 1 0 0 0 1.2 0l1.062-.8v13h-14zm17 23.877-.97 3.88a1 1 0 0 0 -.03.243v17h-18v-17a1 1 0 0 0 -.03-.243l-.97-3.88v-8.877h20z"/><path d="m41 42h14a1 1 0 0 0 1-1v-8a1 1 0 0 0 -1-1h-14a1 1 0 0 0 -1 1v8a1 1 0 0 0 1 1zm1-8h12v6h-12z"/><path d="m43 19h6v2h-6z"/><path d="m51 19h2v2h-2z"/><path d="m43 23h6v2h-6z"/><path d="m51 23h2v2h-2z"/><path d="m45 36h2v2h-2z"/><path d="m49 36h2v2h-2z"/></svg>