<svg height="496pt" viewBox="0 0 496 496" width="496pt" xmlns="http://www.w3.org/2000/svg"><path d="m480 273.472656v-25.664062c0-17.808594-11.457031-33.199219-28.503906-38.320313l-51.496094-15.441406v-12.160156c7.929688-5.542969 14.320312-13.085938 18.519531-21.886719h13.480469c13.230469 0 24-10.769531 24-24v-48c0-48.519531-39.480469-88-88-88s-88 39.480469-88 88v48c0 13.230469 10.769531 24 24 24h13.480469c4.199219 8.800781 10.589843 16.34375 18.519531 21.886719v12.160156l-51.496094 15.449219c-17.046875 5.113281-28.503906 20.511718-28.503906 38.320312v24.183594h-88v-32h40c13.230469 0 24-10.769531 24-24v-96c0-13.230469-10.769531-24-24-24h-160c-13.230469 0-24 10.769531-24 24v96c0 13.230469 10.769531 24 24 24h40v32h-64c-13.230469 0-24 10.769531-24 24v16c0 10.414062 6.710938 19.214844 16 22.527344v161.472656h464v-161.472656c9.289062-3.3125 16-12.113282 16-22.527344v-16c0-10.414062-6.710938-19.214844-16-22.527344zm-16-25.65625v24.183594h-73.222656l-1.578125-9.464844 44.257812-17.703125-6.496093-26 19.933593 5.984375c10.234375 3.070313 17.105469 12.320313 17.105469 23zm-97.222656-7.816406h2.4375l5.335937 32h-13.109375zm42.351562-26.511719 5.414063 21.671875-28.039063 11.214844-2.183594-13.128906 11.824219-23.652344zm30.871094-77.488281c0 4.414062-3.59375 8-8 8h-8.640625c.375-2.625.640625-5.28125.640625-8v-24h8c4.40625 0 8 3.585938 8 8zm-72-120c39.695312 0 72 32.296875 72 72v9.472656c-2.511719-.898437-5.183594-1.472656-8-1.472656h-16c-13.34375 0-25.878906-5.191406-35.3125-14.625l-12.6875-12.6875-12.6875 12.6875c-9.433594 9.433594-21.96875 14.625-35.3125 14.625h-16c-2.816406 0-5.488281.574219-8 1.472656v-9.472656c0-39.703125 32.304688-72 72-72zm-64 128c-4.40625 0-8-3.585938-8-8v-16c0-4.414062 3.59375-8 8-8h8v24c0 2.71875.265625 5.375.640625 8zm24-8v-24.535156c14.585938-1.753906 28.078125-8.234375 38.625-18.777344l1.375-1.375 1.375 1.375c10.546875 10.542969 24.039062 17.023438 38.625 18.777344v24.535156c0 22.054688-17.945312 40-40 40s-40-17.945312-40-40zm40 56c5.558594 0 10.929688-.839844 16-2.359375v8.464844l-12.945312 25.894531h-6.109376l-12.945312-25.886719v-8.464843c5.070312 1.511718 10.441406 2.351562 16 2.351562zm-28.144531 17.601562 11.824219 23.65625-2.183594 13.125-28.039063-11.214843 5.414063-21.671875zm-67.855469 38.214844c0-10.679687 6.871094-19.921875 17.105469-22.992187l19.941406-5.984375-6.496094 26 44.257813 17.703125-1.585938 9.457031h-73.222656zm-224-135.816406h160c4.40625 0 8 3.585938 8 8v72h-176v-72c0-4.414062 3.59375-8 8-8zm-8 104v-8h176v8c0 4.414062-3.59375 8-8 8h-160c-4.40625 0-8-3.585938-8-8zm64 24h48v32h-48zm-72 240v-144h432v144zm448-168c0 4.414062-3.59375 8-8 8h-448c-4.40625 0-8-3.585938-8-8v-16c0-4.414062 3.59375-8 8-8h448c4.40625 0 8 3.585938 8 8zm0 0"/><path d="m48 464h400v-112h-400zm16-96h368v80h-368zm0 0"/></svg>